<?xml version="1.0" encoding="UTF-8"?>
<svg viewBox="0 0 407.02304 391.29883" xmlns="http://www.w3.org/2000/svg">
 <defs>
  <filter id="c">
   <feGaussianBlur stdDeviation=".27578"/>
  </filter>
  <linearGradient id="b" x1="242.79" x2="239.57" y1="558.87" y2="695.54" gradientUnits="userSpaceOnUse">
   <stop stop-color="#00484d" offset="0"/>
   <stop stop-color="#007880" offset="1"/>
  </linearGradient>
  <linearGradient id="a" x1="142.12" x2="416.14" y1="500.5" y2="512.65" gradientUnits="userSpaceOnUse">
   <stop stop-color="#007880" offset="0"/>
   <stop stop-color="#007880" stop-opacity="0" offset="1"/>
  </linearGradient>
 </defs>
 <g transform="translate(-66.914 -360.53)">
  <path d="m107.83 549.22h332.63c6.2992 0 11.37 5.0712 11.37 11.37l-25.728 179.87c0 6.2991-5.0711 11.37-11.37 11.37h-281.17c-6.2992 0-11.37-5.0711-11.37-11.37l-25.728-179.87c0-6.2991 5.0711-11.37 11.37-11.37z" fill="url(#b)"/>
  <path d="m67.919 545.02v31.356c0 6.2991 4.9569 11.256 11.256 11.256h383.31c6.2991 0 11.457-4.9569 11.457-11.256v-31.356h-406.02z" fill="#007880"/>
  <path d="m105.51 481.36-38.592 63.114h406.02l-38.592-63.114h-328.83zm15.075 10.251h298.68l25.929 42.612h-350.54l25.929-42.612z" fill="#00a7b3"/>
  <path d="m92.497 534.67 25.939-44.055 304.68 0.41165 24.704 43.231-355.32 0.41165z" fill="#006066"/>
  <path d="m92.497 534.67 25.939-44.055 304.68 0.41165 24.704 43.231-355.32 0.41165z" fill="url(#a)"/>
  <path d="m118.37 490.61-25.929 44.019h26.532v-44.019h-0.60298z" fill="#00484d"/>
  <path d="m422.68 490.61 25.929 44.019h-26.532v-44.019h0.60268z" fill="#00484d"/>
  <path d="m124.23 605.18v53.466h17.085v-53.466h-17.085zm34.572 0v53.466h17.085v-53.466h-17.085zm34.773 0v53.466h17.085v-53.466h-17.085zm34.773 0v53.466h16.884v-53.466h-16.884zm34.572 0v53.466h17.085v-53.466h-17.085zm34.773 0v53.466h16.884v-53.466h-16.884zm34.572 0v53.466h17.085v-53.466h-17.085zm34.773 0v53.466h17.085v-53.466h-17.085zm34.572 0v53.466h17.085v-53.466h-17.085zm-277.38 77.184 4.623 53.466h12.462v-53.466h-17.085zm34.572 0v53.466h17.085v-53.466h-17.085zm34.773 0v53.466h17.085v-53.466h-17.085zm34.773 0v53.466h16.884v-53.466h-16.884zm34.572 0v53.466h17.085v-53.466h-17.085zm34.773 0v53.466h16.884v-53.466h-16.884zm34.572 0v53.466h17.085v-53.466h-17.085zm34.773 0v53.466h17.085v-53.466h-17.085zm34.572 0v53.466h12.462l4.623-53.466h-17.085z" fill="#00484d"/>
  <path d="m124.14 605.75v6.834h17.085v-6.834h-17.085zm34.572 0v6.834h17.085v-6.834h-17.085zm34.773 0v6.834h17.085v-6.834h-17.085zm34.773 0v6.834h16.884v-6.834h-16.884zm34.572 0v6.834h17.085v-6.834h-17.085zm34.773 0v6.834h16.884v-6.834h-16.884zm34.572 0v6.834h17.085v-6.834h-17.085zm34.773 0v6.834h17.085v-6.834h-17.085zm34.572 0v6.834h17.085v-6.834h-17.085zm-277.38 77.184 0.60268 6.834h16.482v-6.834h-17.085zm34.572 0v6.834h17.085v-6.834h-17.085zm34.773 0v6.834h17.085v-6.834h-17.085zm34.773 0v6.834h16.884v-6.834h-16.884zm34.572 0v6.834h17.085v-6.834h-17.085zm34.773 0v6.834h16.884v-6.834h-16.884zm34.572 0v6.834h17.085v-6.834h-17.085zm34.773 0v6.834h17.085v-6.834h-17.085zm34.572 0v6.834h16.482l0.60268-6.834h-17.085z" fill="#2e3436"/>
  <path d="m125.42 652.41v9.246h17.085v-9.246h-17.085zm34.572 0v9.246h17.085v-9.246h-17.085zm34.773 0v9.246h17.085v-9.246h-17.085zm34.773 0v9.246h16.884v-9.246h-16.884zm34.572 0v9.246h17.085v-9.246h-17.085zm34.773 0v9.246h16.884v-9.246h-16.884zm34.572 0v9.246h17.085v-9.246h-17.085zm34.773 0v9.246h17.085v-9.246h-17.085zm34.572 0v9.246h17.085v-9.246h-17.085zm-277.38 32.964 4.623 53.466h12.462v-9.2459h-12.462l-3.819-44.22h-0.80401zm293.66 0-3.819 44.22h-12.462v9.2459h12.462l4.623-53.466h-0.80399zm-259.09 44.22v9.2459h17.085v-9.2459h-17.085zm34.773 0v9.2459h17.085v-9.2459h-17.085zm34.773 0v9.2459h16.884v-9.2459h-16.884zm34.572 0v9.2459h17.085v-9.2459h-17.085zm34.773 0v9.2459h16.884v-9.2459h-16.884zm34.572 0v9.2459h17.085v-9.2459h-17.085zm34.773 0v9.2459h17.085v-9.2459h-17.085z" fill="#00c4cc"/>
  <path d="m69.125 543.59 402.8 1.608" fill="#fff" opacity=".8" stroke="#fff" stroke-width="2.279"/>
  <path d="m118.88 492.04 17.873-0.61877" fill="#fff" opacity=".8" stroke="#fff" stroke-width="2.0939"/>
  <path transform="matrix(5.2625 0 0 5.2625 -899.77 -2119.7)" d="m225.25,511.17468c0,1.13909-.92341,2.0625-2.0625,2.0625s-2.0625-.92341-2.0625-2.0625 .92341-2.0625 2.0625-2.0625 2.0625.92342 2.0625,2.0625z" fill="#2e3436" opacity=".8"/>
  <path d="m370.31 490.61-3.3682 43.375 10.687 0.6374 3.3334-44.088-10.653 0.0753zm13.654 52.906-109.34 21.651 2.613 11.055 114.33-24.93 3.8534-4.6171 1.7056-3.8535-13.163 0.69459z" fill="#00484d"/>
  <path d="m345.3 362.57c-1.9343 0.27014-3.7334 1.3948-4.824 3.015l-90.249 113.97h17.889l79.194-100.3 46.23 36.984-124.42 154.77s4.02 8.844 14.07 3.216l125.62-154.77c2.4077-2.9069 1.8211-7.7952-1.206-10.05l-57.084-45.024c-1.399-1.2788-3.3358-1.9493-5.226-1.809z"/>
  <path transform="matrix(6.432 0 0 6.432 -1152.9 -2717.3)" d="m233.4375,479.1875-.625.1875 9.5625,7.46875-19.65625,24.40625h.5625l19.65625-24.46875-9.5-7.59375zm-.6875,2.0625c-.2377.0605-.45341.20508-.59375.40625l-12.3125,15.375h.59375l12.4375-15.5625c.0495-.0839.1164-.15193.1875-.21875-.0757-.009-.17437-.009-.25,0h-.0625z" fill="#fff" filter="url(#c)"/>
  <path d="m382.53 534.33 1.137 9.6647 12.791-0.56858-4.548-9.6647-9.3804 0.56859z" fill="#007880"/>
  <path d="m363.71 481.28 6.8827 9.3292 10.653-0.0753-6.0154-9.717-11.52 0.46311z" fill="#007880"/>
 </g>
</svg>
